<svg xmlns="http://www.w3.org/2000/svg" width="32" height="32" viewBox="0 0 8.467 8.467" id="pokemon"><g transform="translate(290.877 -673.231) scale(.26458)"><path fill="#88868a" d="m -1079.6294,2559.4964 h 8.5 v 2 h -8.5 z" paint-order="fill markers stroke"></path><path fill="#fff" d="m -1095.8036,2561.5273 h 8.5559 c 0.552,1.6538 2.033,2.861 3.8684,2.861 1.8354,0 3.2833,-1.2181 3.8353,-2.872 l 8.589,0.011 c -0.6515,6.2914 -5.959,11.19 -12.4243,11.19 -6.4652,0 -11.7727,-4.8986 -12.4243,-11.19 z" color="#000" font-family="sans-serif" font-weight="400" overflow="visible" style="line-height:normal;font-variant-ligatures:normal;font-variant-position:normal;font-variant-caps:normal;font-variant-numeric:normal;font-variant-alternates:normal;font-feature-settings:normal;text-indent:0;text-align:start;text-decoration-line:none;text-decoration-style:solid;text-decoration-color:#000;text-transform:none;text-orientation:mixed;shape-padding:0;isolation:auto;mix-blend-mode:normal"></path><path fill="#88868a" d="m -1095.6875,2559.4964 h 8.5 v 2 h -8.5 z" paint-order="fill markers stroke"></path><path fill="#fe8099" d="m -1083.3793,2548.1871 c 6.4027,0 11.6776,4.7192 12.5751,10.8706 h -8.8783 c -0.6916,-1.4073 -2.0277,-2.3878 -3.6968,-2.3878 -1.6691,0 -3.0108,0.9805 -3.7024,2.3878 h -8.8727 c 0.8974,-6.1514 6.1724,-10.8706 12.5751,-10.8706 z" color="#000" font-family="sans-serif" font-weight="400" overflow="visible" style="line-height:normal;font-variant-ligatures:normal;font-variant-position:normal;font-variant-caps:normal;font-variant-numeric:normal;font-variant-alternates:normal;font-feature-settings:normal;text-indent:0;text-align:start;text-decoration-line:none;text-decoration-style:solid;text-decoration-color:#000;text-transform:none;text-orientation:mixed;shape-padding:0;isolation:auto;mix-blend-mode:normal"></path><path fill="#d8d6d7" d="m -1083.3793,2557.2463 c 1.8014,0 3.25,1.4487 3.25,3.25 0,1.8014 -1.4486,3.25 -3.25,3.25 -1.8013,0 -3.25,-1.4486 -3.25,-3.25 0,-1.8013 1.4487,-3.25 3.25,-3.25 z" color="#000" font-family="sans-serif" font-weight="400" overflow="visible" style="line-height:normal;font-variant-ligatures:normal;font-variant-position:normal;font-variant-caps:normal;font-variant-numeric:normal;font-variant-alternates:normal;font-feature-settings:normal;text-indent:0;text-align:start;text-decoration-line:none;text-decoration-style:solid;text-decoration-color:#000;text-transform:none;text-orientation:mixed;shape-padding:0;isolation:auto;mix-blend-mode:normal"></path><path fill="#fff" style="line-height:normal;font-variant-ligatures:normal;font-variant-position:normal;font-variant-caps:normal;font-variant-numeric:normal;font-variant-alternates:normal;font-feature-settings:normal;text-indent:0;text-align:start;text-decoration-line:none;text-decoration-style:solid;text-decoration-color:#000;text-transform:none;text-orientation:mixed;shape-padding:0;isolation:auto;mix-blend-mode:normal" d="m -1083.3793,2559.2619 c 0.6842,0 1.2344,0.5503 1.2344,1.2344 0,0.6842 -0.5502,1.2344 -1.2344,1.2344 -0.6841,0 -1.2344,-0.5502 -1.2344,-1.2344 0,-0.6841 0.5503,-1.2344 1.2344,-1.2344 z" color="#000" font-family="sans-serif" font-weight="400" overflow="visible"></path><g stroke="#586597" transform="translate(-849.38 1497.884)"><path fill="none" stroke-linecap="round" stroke-linejoin="round" d="m -221.49997,1062.6121 a 12.5,12.5 0 0 1 -12.5,12.5 12.5,12.5 0 0 1 -12.5,-12.5 12.5,12.5 0 0 1 12.5,-12.5 12.5,12.5 0 0 1 12.5,12.5 z"></path><path fill="none" stroke-linecap="round" stroke-linejoin="round" d="m -230.49997,1062.6121 a 3.5,3.5 0 0 1 -3.5,3.5 3.5,3.5 0 0 1 -3.5,-3.5 3.5,3.5 0 0 1 3.5,-3.5 3.5,3.5 0 0 1 3.5,3.5 z"></path><path fill="none" stroke-linecap="round" stroke-linejoin="round" d="m -232.74997,1062.6121 a 1.2499988,1.2499988 0 0 1 -1.25,1.25 1.2499988,1.2499988 0 0 1 -1.25,-1.25 1.2499988,1.2499988 0 0 1 1.25,-1.25 1.2499988,1.2499988 0 0 1 1.25,1.25 z"></path><path fill="none" d="M-246.25001 1061.3622h9M-246.25001 1063.3622h9M-230.75001 1061.3622h9M-230.75001 1063.3622h9"></path></g></g></svg>